<svg width="25" height="24" viewBox="0 0 25 24" fill="none" xmlns="http://www.w3.org/2000/svg">
<g id="ph:stairs">
<path id="Vector" d="M19.4166 2.25H5.91663C5.5188 2.25 5.13727 2.40804 4.85597 2.68934C4.57466 2.97064 4.41663 3.35218 4.41663 3.75V20.25C4.41663 20.6478 4.57466 21.0294 4.85597 21.3107C5.13727 21.592 5.5188 21.75 5.91663 21.75H19.4166C19.8145 21.75 20.196 21.592 20.4773 21.3107C20.7586 21.0294 20.9166 20.6478 20.9166 20.25V3.75C20.9166 3.35218 20.7586 2.97064 20.4773 2.68934C20.196 2.40804 19.8145 2.25 19.4166 2.25ZM14.9166 13.5H19.4166V15.75H11.1666V13.5H14.9166ZM15.6666 12V9.75H19.4166V12H15.6666ZM19.4166 3.75V8.25H14.9166C14.7177 8.25 14.5269 8.32902 14.3863 8.46967C14.2456 8.61032 14.1666 8.80109 14.1666 9V12H10.4166C10.2177 12 10.0269 12.079 9.8863 12.2197C9.74564 12.3603 9.66663 12.5511 9.66663 12.75V15.75H5.91663V3.75H19.4166ZM19.4166 20.25H5.91663V17.25H19.4166V20.25Z" fill="#F5333F"/>
</g>
</svg>
